<mxfile host="app.diagrams.net" modified="2021-02-06T05:37:38.405Z" agent="5.0 (Macintosh; Intel Mac OS X 10_13_6) AppleWebKit/605.1.15 (KHTML, like Gecko) Version/13.1.2 Safari/605.1.15" etag="rqEiqA5wC88J6OqGgnxH" version="14.2.7" type="github">
  <diagram id="qpUF7cWEanEgtJ4Kv6Ic" name="Page-1">
    <mxGraphModel dx="770" dy="598" grid="1" gridSize="10" guides="1" tooltips="1" connect="1" arrows="1" fold="1" page="1" pageScale="1" pageWidth="1169" pageHeight="827" math="0" shadow="0">
      <root>
        <mxCell id="0" />
        <mxCell id="1" parent="0" />
        <mxCell id="okpHjbPYMbPtX3PwwOW8-1" value="" style="group" vertex="1" connectable="0" parent="1">
          <mxGeometry x="620" y="816" width="650" height="640" as="geometry" />
        </mxCell>
        <mxCell id="okpHjbPYMbPtX3PwwOW8-2" value="" style="group;labelBackgroundColor=#FFFFFF;labelBorderColor=#FFFFFF;" vertex="1" connectable="0" parent="okpHjbPYMbPtX3PwwOW8-1">
          <mxGeometry width="650" height="640" as="geometry" />
        </mxCell>
        <mxCell id="okpHjbPYMbPtX3PwwOW8-3" value="" style="group" vertex="1" connectable="0" parent="1">
          <mxGeometry x="580" y="740" width="630" height="280" as="geometry" />
        </mxCell>
        <mxCell id="okpHjbPYMbPtX3PwwOW8-4" value="" style="group" vertex="1" connectable="0" parent="okpHjbPYMbPtX3PwwOW8-3">
          <mxGeometry x="400" y="-240" width="90" height="50" as="geometry" />
        </mxCell>
        <mxCell id="okpHjbPYMbPtX3PwwOW8-5" value="" style="group" vertex="1" connectable="0" parent="okpHjbPYMbPtX3PwwOW8-4">
          <mxGeometry y="70" width="90" as="geometry" />
        </mxCell>
        <mxCell id="okpHjbPYMbPtX3PwwOW8-6" value="" style="endArrow=none;html=1;strokeWidth=4;fontSize=16;fillColor=#e3c800;" edge="1" parent="okpHjbPYMbPtX3PwwOW8-5">
          <mxGeometry width="50" height="50" relative="1" as="geometry">
            <mxPoint x="30" as="sourcePoint" />
            <mxPoint as="targetPoint" />
          </mxGeometry>
        </mxCell>
        <mxCell id="okpHjbPYMbPtX3PwwOW8-7" value="" style="endArrow=none;html=1;strokeWidth=4;fontSize=16;fillColor=#60a917;strokeColor=#CC0066;" edge="1" parent="okpHjbPYMbPtX3PwwOW8-5">
          <mxGeometry width="50" height="50" relative="1" as="geometry">
            <mxPoint x="30" as="sourcePoint" />
            <mxPoint x="90" as="targetPoint" />
          </mxGeometry>
        </mxCell>
        <mxCell id="okpHjbPYMbPtX3PwwOW8-8" value="Enrich /linearize with PCR" style="text;html=1;align=center;verticalAlign=middle;resizable=0;points=[];autosize=1;fontSize=16;" vertex="1" parent="okpHjbPYMbPtX3PwwOW8-4">
          <mxGeometry x="-170" y="-10" width="200" height="20" as="geometry" />
        </mxCell>
        <mxCell id="okpHjbPYMbPtX3PwwOW8-9" value="" style="group" vertex="1" connectable="0" parent="okpHjbPYMbPtX3PwwOW8-3">
          <mxGeometry x="-20" y="-210" width="70" height="40" as="geometry" />
        </mxCell>
        <mxCell id="okpHjbPYMbPtX3PwwOW8-10" value="" style="endArrow=none;dashed=1;html=1;strokeColor=#000000;strokeWidth=4;fontSize=16;dashPattern=1 1;" edge="1" parent="okpHjbPYMbPtX3PwwOW8-9">
          <mxGeometry width="50" height="50" relative="1" as="geometry">
            <mxPoint x="47" y="40" as="sourcePoint" />
            <mxPoint x="70" y="40" as="targetPoint" />
          </mxGeometry>
        </mxCell>
        <mxCell id="okpHjbPYMbPtX3PwwOW8-11" value="" style="endArrow=none;html=1;strokeWidth=4;fontSize=16;strokeColor=#009900;" edge="1" parent="okpHjbPYMbPtX3PwwOW8-9">
          <mxGeometry width="50" height="50" relative="1" as="geometry">
            <mxPoint y="40" as="sourcePoint" />
            <mxPoint x="47" y="40" as="targetPoint" />
          </mxGeometry>
        </mxCell>
        <mxCell id="okpHjbPYMbPtX3PwwOW8-12" value="&lt;font color=&quot;#009900&quot;&gt;P7&lt;/font&gt;" style="text;html=1;align=center;verticalAlign=middle;resizable=0;points=[];autosize=1;fontSize=16;" vertex="1" parent="okpHjbPYMbPtX3PwwOW8-9">
          <mxGeometry y="20" width="40" height="20" as="geometry" />
        </mxCell>
        <mxCell id="okpHjbPYMbPtX3PwwOW8-13" value="" style="group" vertex="1" connectable="0" parent="okpHjbPYMbPtX3PwwOW8-3">
          <mxGeometry x="-20" y="-180" width="490" height="80" as="geometry" />
        </mxCell>
        <mxCell id="okpHjbPYMbPtX3PwwOW8-14" value="" style="group" vertex="1" connectable="0" parent="okpHjbPYMbPtX3PwwOW8-13">
          <mxGeometry x="150" width="280" height="20" as="geometry" />
        </mxCell>
        <mxCell id="okpHjbPYMbPtX3PwwOW8-15" value="&lt;font size=&quot;5&quot; color=&quot;#006eaf&quot;&gt;ACCC&lt;/font&gt;" style="text;html=1;strokeColor=none;fillColor=none;align=center;verticalAlign=middle;whiteSpace=wrap;rounded=0;" vertex="1" parent="okpHjbPYMbPtX3PwwOW8-14">
          <mxGeometry width="40" height="20" as="geometry" />
        </mxCell>
        <mxCell id="okpHjbPYMbPtX3PwwOW8-16" value="" style="endArrow=none;dashed=1;html=1;dashPattern=1 3;strokeWidth=4;fillColor=#1ba1e2;strokeColor=#006EAF;" edge="1" parent="okpHjbPYMbPtX3PwwOW8-14">
          <mxGeometry width="50" height="50" relative="1" as="geometry">
            <mxPoint x="60" y="9.5" as="sourcePoint" />
            <mxPoint x="130" y="10" as="targetPoint" />
          </mxGeometry>
        </mxCell>
        <mxCell id="okpHjbPYMbPtX3PwwOW8-17" value="&lt;font style=&quot;font-size: 24px&quot; color=&quot;#006eaf&quot;&gt;GTTT&lt;/font&gt;" style="text;html=1;align=center;verticalAlign=middle;resizable=0;points=[];autosize=1;" vertex="1" parent="okpHjbPYMbPtX3PwwOW8-14">
          <mxGeometry x="130" width="80" height="20" as="geometry" />
        </mxCell>
        <mxCell id="okpHjbPYMbPtX3PwwOW8-18" value="" style="endArrow=none;html=1;strokeWidth=4;fontSize=16;strokeColor=#FF9933;" edge="1" parent="okpHjbPYMbPtX3PwwOW8-14">
          <mxGeometry width="50" height="50" relative="1" as="geometry">
            <mxPoint x="210" y="9.5" as="sourcePoint" />
            <mxPoint x="270" y="10" as="targetPoint" />
          </mxGeometry>
        </mxCell>
        <mxCell id="okpHjbPYMbPtX3PwwOW8-19" value="" style="endArrow=none;html=1;strokeWidth=4;fontSize=16;fillColor=#fa6800;strokeColor=#B5739D;" edge="1" parent="okpHjbPYMbPtX3PwwOW8-13">
          <mxGeometry width="50" height="50" relative="1" as="geometry">
            <mxPoint x="70" y="10" as="sourcePoint" />
            <mxPoint x="130" y="9.5" as="targetPoint" />
          </mxGeometry>
        </mxCell>
        <mxCell id="okpHjbPYMbPtX3PwwOW8-20" value="" style="group" vertex="1" connectable="0" parent="okpHjbPYMbPtX3PwwOW8-3">
          <mxGeometry y="60" width="630" height="220" as="geometry" />
        </mxCell>
        <mxCell id="okpHjbPYMbPtX3PwwOW8-21" value="" style="group" vertex="1" connectable="0" parent="okpHjbPYMbPtX3PwwOW8-20">
          <mxGeometry x="400" y="-220" width="90" height="50" as="geometry" />
        </mxCell>
        <mxCell id="okpHjbPYMbPtX3PwwOW8-22" value="" style="group;textOpacity=90;" vertex="1" connectable="0" parent="okpHjbPYMbPtX3PwwOW8-21">
          <mxGeometry y="50" width="90" as="geometry" />
        </mxCell>
        <mxCell id="okpHjbPYMbPtX3PwwOW8-23" value="" style="endArrow=none;html=1;strokeWidth=4;fontSize=16;fillColor=#e3c800;textOpacity=90;" edge="1" parent="okpHjbPYMbPtX3PwwOW8-22">
          <mxGeometry width="50" height="50" relative="1" as="geometry">
            <mxPoint x="30" as="sourcePoint" />
            <mxPoint as="targetPoint" />
          </mxGeometry>
        </mxCell>
        <mxCell id="okpHjbPYMbPtX3PwwOW8-24" value="" style="endArrow=none;html=1;strokeWidth=4;fontSize=16;fillColor=#60a917;strokeColor=#CC0066;textOpacity=90;" edge="1" parent="okpHjbPYMbPtX3PwwOW8-22">
          <mxGeometry width="50" height="50" relative="1" as="geometry">
            <mxPoint x="30" as="sourcePoint" />
            <mxPoint x="90" as="targetPoint" />
          </mxGeometry>
        </mxCell>
        <mxCell id="okpHjbPYMbPtX3PwwOW8-25" value="" style="group" vertex="1" connectable="0" parent="okpHjbPYMbPtX3PwwOW8-20">
          <mxGeometry x="-20" y="-210" width="70" height="40" as="geometry" />
        </mxCell>
        <mxCell id="okpHjbPYMbPtX3PwwOW8-26" value="" style="endArrow=none;dashed=1;html=1;strokeColor=#000000;strokeWidth=4;fontSize=16;dashPattern=1 1;textOpacity=90;" edge="1" parent="okpHjbPYMbPtX3PwwOW8-25">
          <mxGeometry width="50" height="50" relative="1" as="geometry">
            <mxPoint x="47" y="40" as="sourcePoint" />
            <mxPoint x="70" y="40" as="targetPoint" />
          </mxGeometry>
        </mxCell>
        <mxCell id="okpHjbPYMbPtX3PwwOW8-27" value="" style="endArrow=none;html=1;strokeWidth=4;fontSize=16;strokeColor=#009900;textOpacity=90;" edge="1" parent="okpHjbPYMbPtX3PwwOW8-25">
          <mxGeometry width="50" height="50" relative="1" as="geometry">
            <mxPoint y="40" as="sourcePoint" />
            <mxPoint x="47" y="40" as="targetPoint" />
          </mxGeometry>
        </mxCell>
        <mxCell id="okpHjbPYMbPtX3PwwOW8-28" value="" style="group;textOpacity=90;" vertex="1" connectable="0" parent="okpHjbPYMbPtX3PwwOW8-20">
          <mxGeometry x="-20" y="-180" width="540" height="80" as="geometry" />
        </mxCell>
        <mxCell id="okpHjbPYMbPtX3PwwOW8-29" value="" style="group;textOpacity=90;" vertex="1" connectable="0" parent="okpHjbPYMbPtX3PwwOW8-28">
          <mxGeometry x="150" width="280" height="20" as="geometry" />
        </mxCell>
        <mxCell id="okpHjbPYMbPtX3PwwOW8-30" value="&lt;font size=&quot;5&quot; color=&quot;#ff6666&quot;&gt;AAAC&lt;/font&gt;" style="text;html=1;strokeColor=none;fillColor=none;align=center;verticalAlign=middle;whiteSpace=wrap;rounded=0;textOpacity=90;" vertex="1" parent="okpHjbPYMbPtX3PwwOW8-29">
          <mxGeometry width="40" height="20" as="geometry" />
        </mxCell>
        <mxCell id="okpHjbPYMbPtX3PwwOW8-31" value="" style="endArrow=none;dashed=1;html=1;dashPattern=1 3;strokeWidth=4;fillColor=#1ba1e2;strokeColor=#FF6666;textOpacity=90;" edge="1" parent="okpHjbPYMbPtX3PwwOW8-29">
          <mxGeometry width="50" height="50" relative="1" as="geometry">
            <mxPoint x="60" y="9.5" as="sourcePoint" />
            <mxPoint x="130" y="10" as="targetPoint" />
          </mxGeometry>
        </mxCell>
        <mxCell id="okpHjbPYMbPtX3PwwOW8-32" value="&lt;font size=&quot;5&quot; color=&quot;#ff6666&quot;&gt;GGGT&lt;/font&gt;" style="text;html=1;align=center;verticalAlign=middle;resizable=0;points=[];autosize=1;textOpacity=90;" vertex="1" parent="okpHjbPYMbPtX3PwwOW8-29">
          <mxGeometry x="125" width="90" height="20" as="geometry" />
        </mxCell>
        <mxCell id="okpHjbPYMbPtX3PwwOW8-33" value="" style="endArrow=none;html=1;strokeWidth=4;fontSize=16;strokeColor=#FF9933;textOpacity=90;" edge="1" parent="okpHjbPYMbPtX3PwwOW8-29">
          <mxGeometry width="50" height="50" relative="1" as="geometry">
            <mxPoint x="210" y="9.5" as="sourcePoint" />
            <mxPoint x="270" y="10" as="targetPoint" />
          </mxGeometry>
        </mxCell>
        <mxCell id="okpHjbPYMbPtX3PwwOW8-34" value="" style="endArrow=none;html=1;strokeWidth=4;fontSize=16;fillColor=#fa6800;strokeColor=#B5739D;textOpacity=90;" edge="1" parent="okpHjbPYMbPtX3PwwOW8-28">
          <mxGeometry width="50" height="50" relative="1" as="geometry">
            <mxPoint x="70" y="10" as="sourcePoint" />
            <mxPoint x="130" y="9.5" as="targetPoint" />
          </mxGeometry>
        </mxCell>
        <mxCell id="okpHjbPYMbPtX3PwwOW8-35" value="&lt;font style=&quot;font-size: 24px&quot; color=&quot;#ff6666&quot;&gt;CCCA&lt;/font&gt;" style="text;html=1;align=center;verticalAlign=middle;resizable=0;points=[];autosize=1;textOpacity=90;" vertex="1" parent="okpHjbPYMbPtX3PwwOW8-28">
          <mxGeometry x="280" y="30" width="80" height="20" as="geometry" />
        </mxCell>
        <mxCell id="okpHjbPYMbPtX3PwwOW8-36" value="" style="endArrow=none;dashed=1;html=1;dashPattern=1 3;strokeWidth=4;strokeColor=#FF6666;textOpacity=90;" edge="1" parent="okpHjbPYMbPtX3PwwOW8-28">
          <mxGeometry width="50" height="50" relative="1" as="geometry">
            <mxPoint x="210" y="40" as="sourcePoint" />
            <mxPoint x="290" y="40.5" as="targetPoint" />
          </mxGeometry>
        </mxCell>
        <mxCell id="okpHjbPYMbPtX3PwwOW8-37" value="&lt;font size=&quot;5&quot; color=&quot;#ff6666&quot;&gt;TTTG&lt;/font&gt;" style="text;html=1;strokeColor=none;fillColor=none;align=center;verticalAlign=middle;whiteSpace=wrap;rounded=0;textOpacity=90;" vertex="1" parent="okpHjbPYMbPtX3PwwOW8-28">
          <mxGeometry x="150" y="30" width="40" height="20" as="geometry" />
        </mxCell>
        <mxCell id="okpHjbPYMbPtX3PwwOW8-38" value="" style="group;textOpacity=90;" vertex="1" connectable="0" parent="okpHjbPYMbPtX3PwwOW8-28">
          <mxGeometry y="39.5" width="130" height="0.5" as="geometry" />
        </mxCell>
        <mxCell id="okpHjbPYMbPtX3PwwOW8-39" value="" style="endArrow=none;dashed=1;html=1;strokeColor=#000000;strokeWidth=4;fontSize=16;dashPattern=1 1;textOpacity=90;" edge="1" parent="okpHjbPYMbPtX3PwwOW8-38">
          <mxGeometry width="50" height="50" relative="1" as="geometry">
            <mxPoint x="47" y="0.5" as="sourcePoint" />
            <mxPoint x="70" y="0.5" as="targetPoint" />
          </mxGeometry>
        </mxCell>
        <mxCell id="okpHjbPYMbPtX3PwwOW8-40" value="" style="endArrow=none;html=1;strokeWidth=4;fontSize=16;strokeColor=#009900;textOpacity=90;" edge="1" parent="okpHjbPYMbPtX3PwwOW8-38">
          <mxGeometry width="50" height="50" relative="1" as="geometry">
            <mxPoint y="0.5" as="sourcePoint" />
            <mxPoint x="47" y="0.5" as="targetPoint" />
          </mxGeometry>
        </mxCell>
        <mxCell id="okpHjbPYMbPtX3PwwOW8-41" value="" style="endArrow=none;html=1;strokeWidth=4;fontSize=16;fillColor=#fa6800;strokeColor=#B5739D;textOpacity=90;" edge="1" parent="okpHjbPYMbPtX3PwwOW8-38">
          <mxGeometry width="50" height="50" relative="1" as="geometry">
            <mxPoint x="70" y="0.5" as="sourcePoint" />
            <mxPoint x="130" as="targetPoint" />
          </mxGeometry>
        </mxCell>
        <mxCell id="okpHjbPYMbPtX3PwwOW8-42" value="" style="group;textOpacity=90;" vertex="1" connectable="0" parent="okpHjbPYMbPtX3PwwOW8-28">
          <mxGeometry x="420" y="40.5" width="90" as="geometry" />
        </mxCell>
        <mxCell id="okpHjbPYMbPtX3PwwOW8-43" value="" style="endArrow=none;html=1;strokeWidth=4;fontSize=16;fillColor=#e3c800;textOpacity=90;" edge="1" parent="okpHjbPYMbPtX3PwwOW8-42">
          <mxGeometry width="50" height="50" relative="1" as="geometry">
            <mxPoint x="30" as="sourcePoint" />
            <mxPoint as="targetPoint" />
          </mxGeometry>
        </mxCell>
        <mxCell id="okpHjbPYMbPtX3PwwOW8-44" value="" style="endArrow=none;html=1;strokeWidth=4;fontSize=16;fillColor=#60a917;strokeColor=#CC0066;textOpacity=90;" edge="1" parent="okpHjbPYMbPtX3PwwOW8-42">
          <mxGeometry width="50" height="50" relative="1" as="geometry">
            <mxPoint x="30" as="sourcePoint" />
            <mxPoint x="90" as="targetPoint" />
          </mxGeometry>
        </mxCell>
        <mxCell id="okpHjbPYMbPtX3PwwOW8-45" value="" style="endArrow=none;html=1;strokeWidth=4;fontSize=16;strokeColor=#FF9933;textOpacity=90;" edge="1" parent="okpHjbPYMbPtX3PwwOW8-28">
          <mxGeometry width="50" height="50" relative="1" as="geometry">
            <mxPoint x="360" y="40" as="sourcePoint" />
            <mxPoint x="420" y="40.5" as="targetPoint" />
          </mxGeometry>
        </mxCell>
        <mxCell id="okpHjbPYMbPtX3PwwOW8-46" value="5&#39;" style="text;html=1;align=center;verticalAlign=middle;resizable=0;points=[];autosize=1;fontSize=16;textOpacity=90;" vertex="1" parent="okpHjbPYMbPtX3PwwOW8-28">
          <mxGeometry x="510" y="30" width="30" height="20" as="geometry" />
        </mxCell>
        <mxCell id="okpHjbPYMbPtX3PwwOW8-47" value="&lt;font color=&quot;#cc0066&quot;&gt;anti-P5&lt;/font&gt;" style="text;html=1;align=center;verticalAlign=middle;resizable=0;points=[];autosize=1;fontSize=16;textOpacity=90;" vertex="1" parent="okpHjbPYMbPtX3PwwOW8-28">
          <mxGeometry x="445" y="20.5" width="70" height="20" as="geometry" />
        </mxCell>
        <mxCell id="okpHjbPYMbPtX3PwwOW8-48" value="5&#39;" style="text;html=1;align=center;verticalAlign=middle;resizable=0;points=[];autosize=1;fontSize=16;" vertex="1" parent="okpHjbPYMbPtX3PwwOW8-20">
          <mxGeometry x="-50" y="-240" width="30" height="20" as="geometry" />
        </mxCell>
        <mxCell id="okpHjbPYMbPtX3PwwOW8-49" value="5&#39;" style="text;html=1;align=center;verticalAlign=middle;resizable=0;points=[];autosize=1;fontSize=16;textOpacity=90;" vertex="1" parent="okpHjbPYMbPtX3PwwOW8-20">
          <mxGeometry x="-50" y="-180" width="30" height="20" as="geometry" />
        </mxCell>
        <mxCell id="okpHjbPYMbPtX3PwwOW8-50" value="&lt;font style=&quot;font-size: 15px&quot; color=&quot;#b5739d&quot;&gt;Rd2 SP&lt;/font&gt;" style="text;html=1;align=center;verticalAlign=middle;resizable=0;points=[];autosize=1;fontSize=16;" vertex="1" parent="okpHjbPYMbPtX3PwwOW8-20">
          <mxGeometry x="45" y="-255" width="70" height="30" as="geometry" />
        </mxCell>
        <mxCell id="okpHjbPYMbPtX3PwwOW8-51" value="&lt;font color=&quot;#cc0066&quot;&gt;P5&lt;/font&gt;" style="text;html=1;align=center;verticalAlign=middle;resizable=0;points=[];autosize=1;fontSize=16;" vertex="1" parent="okpHjbPYMbPtX3PwwOW8-20">
          <mxGeometry x="440" y="-250" width="40" height="20" as="geometry" />
        </mxCell>
        <mxCell id="okpHjbPYMbPtX3PwwOW8-52" value="&lt;font style=&quot;font-size: 16px&quot;&gt;Index 1&lt;/font&gt;" style="text;html=1;align=center;verticalAlign=middle;resizable=0;points=[];autosize=1;fontSize=16;" vertex="1" parent="okpHjbPYMbPtX3PwwOW8-20">
          <mxGeometry x="10" y="-270" width="70" height="20" as="geometry" />
        </mxCell>
        <mxCell id="okpHjbPYMbPtX3PwwOW8-53" value="&lt;font style=&quot;font-size: 16px&quot;&gt;Index 2&lt;/font&gt;" style="text;html=1;align=center;verticalAlign=middle;resizable=0;points=[];autosize=1;fontSize=16;" vertex="1" parent="okpHjbPYMbPtX3PwwOW8-20">
          <mxGeometry x="380" y="-270" width="70" height="20" as="geometry" />
        </mxCell>
        <mxCell id="okpHjbPYMbPtX3PwwOW8-54" value="&lt;font color=&quot;#009900&quot;&gt;anti-P7&lt;/font&gt;" style="text;html=1;align=center;verticalAlign=middle;resizable=0;points=[];autosize=1;fontSize=16;textOpacity=90;" vertex="1" parent="okpHjbPYMbPtX3PwwOW8-20">
          <mxGeometry x="-30" y="-160" width="70" height="20" as="geometry" />
        </mxCell>
        <mxCell id="okpHjbPYMbPtX3PwwOW8-55" value="4" style="ellipse;whiteSpace=wrap;html=1;aspect=fixed;strokeWidth=2;fontSize=16;" vertex="1" parent="okpHjbPYMbPtX3PwwOW8-3">
          <mxGeometry x="171" y="-250" width="25" height="25" as="geometry" />
        </mxCell>
        <mxCell id="okpHjbPYMbPtX3PwwOW8-56" value="" style="group" vertex="1" connectable="0" parent="1">
          <mxGeometry x="450" y="20" width="650" height="640" as="geometry" />
        </mxCell>
        <mxCell id="okpHjbPYMbPtX3PwwOW8-57" value="" style="group;labelBackgroundColor=#FFFFFF;labelBorderColor=#FFFFFF;" vertex="1" connectable="0" parent="okpHjbPYMbPtX3PwwOW8-56">
          <mxGeometry y="-10" width="650" height="640" as="geometry" />
        </mxCell>
        <mxCell id="okpHjbPYMbPtX3PwwOW8-58" value="" style="group" vertex="1" connectable="0" parent="okpHjbPYMbPtX3PwwOW8-57">
          <mxGeometry x="65" width="560" height="560" as="geometry" />
        </mxCell>
        <mxCell id="okpHjbPYMbPtX3PwwOW8-59" value="" style="group" vertex="1" connectable="0" parent="okpHjbPYMbPtX3PwwOW8-58">
          <mxGeometry x="160" y="125" width="280" height="20" as="geometry" />
        </mxCell>
        <mxCell id="okpHjbPYMbPtX3PwwOW8-60" value="&lt;font style=&quot;font-size: 24px&quot;&gt;ACCC&lt;/font&gt;" style="text;html=1;strokeColor=none;fillColor=none;align=center;verticalAlign=middle;whiteSpace=wrap;rounded=0;" vertex="1" parent="okpHjbPYMbPtX3PwwOW8-59">
          <mxGeometry width="40" height="20" as="geometry" />
        </mxCell>
        <mxCell id="okpHjbPYMbPtX3PwwOW8-61" value="" style="endArrow=none;dashed=1;html=1;dashPattern=1 3;strokeWidth=4;" edge="1" parent="okpHjbPYMbPtX3PwwOW8-59">
          <mxGeometry width="50" height="50" relative="1" as="geometry">
            <mxPoint x="60" y="9.5" as="sourcePoint" />
            <mxPoint x="200" y="10" as="targetPoint" />
          </mxGeometry>
        </mxCell>
        <mxCell id="okpHjbPYMbPtX3PwwOW8-62" value="&lt;font style=&quot;font-size: 24px&quot;&gt;GUUU&lt;/font&gt;" style="text;html=1;align=center;verticalAlign=middle;resizable=0;points=[];autosize=1;" vertex="1" parent="okpHjbPYMbPtX3PwwOW8-59">
          <mxGeometry x="190" width="90" height="20" as="geometry" />
        </mxCell>
        <mxCell id="okpHjbPYMbPtX3PwwOW8-63" value="" style="group" vertex="1" connectable="0" parent="okpHjbPYMbPtX3PwwOW8-58">
          <mxGeometry x="160" y="155" width="280" height="20" as="geometry" />
        </mxCell>
        <mxCell id="okpHjbPYMbPtX3PwwOW8-64" value="&lt;font size=&quot;5&quot; color=&quot;#ff6666&quot;&gt;TGGG&lt;/font&gt;" style="text;html=1;strokeColor=none;fillColor=none;align=center;verticalAlign=middle;whiteSpace=wrap;rounded=0;" vertex="1" parent="okpHjbPYMbPtX3PwwOW8-63">
          <mxGeometry width="40" height="20" as="geometry" />
        </mxCell>
        <mxCell id="okpHjbPYMbPtX3PwwOW8-65" value="" style="endArrow=none;dashed=1;html=1;dashPattern=1 3;strokeWidth=4;strokeColor=#FF6666;" edge="1" parent="okpHjbPYMbPtX3PwwOW8-63">
          <mxGeometry width="50" height="50" relative="1" as="geometry">
            <mxPoint x="60" y="9.5" as="sourcePoint" />
            <mxPoint x="200" y="10" as="targetPoint" />
          </mxGeometry>
        </mxCell>
        <mxCell id="okpHjbPYMbPtX3PwwOW8-66" value="&lt;font style=&quot;font-size: 24px&quot; color=&quot;#ff6666&quot;&gt;CAAA&lt;/font&gt;" style="text;html=1;align=center;verticalAlign=middle;resizable=0;points=[];autosize=1;" vertex="1" parent="okpHjbPYMbPtX3PwwOW8-63">
          <mxGeometry x="195" width="80" height="20" as="geometry" />
        </mxCell>
        <mxCell id="okpHjbPYMbPtX3PwwOW8-67" value="" style="group" vertex="1" connectable="0" parent="okpHjbPYMbPtX3PwwOW8-58">
          <mxGeometry x="160" y="35" width="280" height="20" as="geometry" />
        </mxCell>
        <mxCell id="okpHjbPYMbPtX3PwwOW8-68" value="&lt;font style=&quot;font-size: 24px&quot;&gt;ACCC&lt;/font&gt;" style="text;html=1;strokeColor=none;fillColor=none;align=center;verticalAlign=middle;whiteSpace=wrap;rounded=0;" vertex="1" parent="okpHjbPYMbPtX3PwwOW8-67">
          <mxGeometry width="40" height="20" as="geometry" />
        </mxCell>
        <mxCell id="okpHjbPYMbPtX3PwwOW8-69" value="" style="endArrow=none;dashed=1;html=1;dashPattern=1 3;strokeWidth=4;" edge="1" parent="okpHjbPYMbPtX3PwwOW8-67">
          <mxGeometry width="50" height="50" relative="1" as="geometry">
            <mxPoint x="60" y="9.5" as="sourcePoint" />
            <mxPoint x="200" y="10" as="targetPoint" />
          </mxGeometry>
        </mxCell>
        <mxCell id="okpHjbPYMbPtX3PwwOW8-70" value="&lt;font style=&quot;font-size: 24px&quot;&gt;GUUU&lt;/font&gt;" style="text;html=1;align=center;verticalAlign=middle;resizable=0;points=[];autosize=1;" vertex="1" parent="okpHjbPYMbPtX3PwwOW8-67">
          <mxGeometry x="190" width="90" height="20" as="geometry" />
        </mxCell>
        <mxCell id="okpHjbPYMbPtX3PwwOW8-71" value="&lt;font style=&quot;font-size: 16px&quot; face=&quot;Georgia&quot;&gt;Target RNA fragment&lt;/font&gt;" style="text;html=1;align=center;verticalAlign=middle;resizable=0;points=[];autosize=1;fontSize=16;" vertex="1" parent="okpHjbPYMbPtX3PwwOW8-58">
          <mxGeometry x="210" width="170" height="30" as="geometry" />
        </mxCell>
        <mxCell id="okpHjbPYMbPtX3PwwOW8-72" value="" style="endArrow=open;html=1;strokeWidth=3;fillColor=#dae8fc;endFill=0;" edge="1" parent="okpHjbPYMbPtX3PwwOW8-58">
          <mxGeometry width="50" height="50" relative="1" as="geometry">
            <mxPoint x="290" y="55" as="sourcePoint" />
            <mxPoint x="290" y="125" as="targetPoint" />
          </mxGeometry>
        </mxCell>
        <mxCell id="okpHjbPYMbPtX3PwwOW8-73" value="&lt;font face=&quot;Georgia&quot;&gt;RNA&lt;/font&gt;" style="text;html=1;align=center;verticalAlign=middle;resizable=0;points=[];autosize=1;fontSize=16;" vertex="1" parent="okpHjbPYMbPtX3PwwOW8-58">
          <mxGeometry x="55" y="30" width="50" height="30" as="geometry" />
        </mxCell>
        <mxCell id="okpHjbPYMbPtX3PwwOW8-74" value="&lt;font face=&quot;Georgia&quot;&gt;RNA&lt;/font&gt;" style="text;html=1;align=center;verticalAlign=middle;resizable=0;points=[];autosize=1;fontSize=16;" vertex="1" parent="okpHjbPYMbPtX3PwwOW8-58">
          <mxGeometry x="55" y="120" width="50" height="30" as="geometry" />
        </mxCell>
        <mxCell id="okpHjbPYMbPtX3PwwOW8-75" value="&lt;font face=&quot;Georgia&quot;&gt;1st cDNA&lt;/font&gt;" style="text;html=1;align=center;verticalAlign=middle;resizable=0;points=[];autosize=1;fontSize=16;" vertex="1" parent="okpHjbPYMbPtX3PwwOW8-58">
          <mxGeometry x="40" y="150" width="80" height="30" as="geometry" />
        </mxCell>
        <mxCell id="okpHjbPYMbPtX3PwwOW8-76" value="Reverse transcription" style="text;html=1;align=center;verticalAlign=middle;resizable=0;points=[];autosize=1;fontSize=16;" vertex="1" parent="okpHjbPYMbPtX3PwwOW8-58">
          <mxGeometry x="310" y="85" width="170" height="20" as="geometry" />
        </mxCell>
        <mxCell id="okpHjbPYMbPtX3PwwOW8-77" value="First-strand cDNA Synthesis" style="text;html=1;align=center;verticalAlign=middle;resizable=0;points=[];autosize=1;fontSize=16;" vertex="1" parent="okpHjbPYMbPtX3PwwOW8-58">
          <mxGeometry x="290" y="65" width="220" height="20" as="geometry" />
        </mxCell>
        <mxCell id="okpHjbPYMbPtX3PwwOW8-78" value="" style="endArrow=open;html=1;strokeWidth=3;fillColor=#dae8fc;endFill=0;" edge="1" parent="okpHjbPYMbPtX3PwwOW8-58">
          <mxGeometry width="50" height="50" relative="1" as="geometry">
            <mxPoint x="290" y="181" as="sourcePoint" />
            <mxPoint x="290" y="251" as="targetPoint" />
            <Array as="points">
              <mxPoint x="290" y="211" />
            </Array>
          </mxGeometry>
        </mxCell>
        <mxCell id="okpHjbPYMbPtX3PwwOW8-79" value="&lt;font face=&quot;Comic Sans MS&quot; style=&quot;font-size: 16px&quot;&gt;5&#39;&lt;/font&gt;" style="text;html=1;align=center;verticalAlign=middle;resizable=0;points=[];autosize=1;fontSize=16;" vertex="1" parent="okpHjbPYMbPtX3PwwOW8-58">
          <mxGeometry x="110" y="30" width="30" height="30" as="geometry" />
        </mxCell>
        <mxCell id="okpHjbPYMbPtX3PwwOW8-80" value="&lt;font face=&quot;Comic Sans MS&quot; style=&quot;font-size: 16px&quot;&gt;5&#39;&lt;/font&gt;" style="text;html=1;align=center;verticalAlign=middle;resizable=0;points=[];autosize=1;fontSize=16;" vertex="1" parent="okpHjbPYMbPtX3PwwOW8-58">
          <mxGeometry x="110" y="120" width="30" height="30" as="geometry" />
        </mxCell>
        <mxCell id="okpHjbPYMbPtX3PwwOW8-81" value="&lt;font face=&quot;Comic Sans MS&quot; style=&quot;font-size: 16px&quot;&gt;3&#39;&lt;/font&gt;" style="text;html=1;align=center;verticalAlign=middle;resizable=0;points=[];autosize=1;fontSize=16;" vertex="1" parent="okpHjbPYMbPtX3PwwOW8-58">
          <mxGeometry x="110" y="150" width="30" height="30" as="geometry" />
        </mxCell>
        <mxCell id="okpHjbPYMbPtX3PwwOW8-82" value="&lt;font face=&quot;Comic Sans MS&quot; style=&quot;font-size: 16px&quot;&gt;3&#39;&lt;/font&gt;" style="text;html=1;align=center;verticalAlign=middle;resizable=0;points=[];autosize=1;fontSize=16;" vertex="1" parent="okpHjbPYMbPtX3PwwOW8-58">
          <mxGeometry x="440" y="30" width="30" height="30" as="geometry" />
        </mxCell>
        <mxCell id="okpHjbPYMbPtX3PwwOW8-83" value="&lt;font face=&quot;Comic Sans MS&quot; style=&quot;font-size: 16px&quot;&gt;3&#39;&lt;/font&gt;" style="text;html=1;align=center;verticalAlign=middle;resizable=0;points=[];autosize=1;fontSize=16;" vertex="1" parent="okpHjbPYMbPtX3PwwOW8-58">
          <mxGeometry x="440" y="120" width="30" height="30" as="geometry" />
        </mxCell>
        <mxCell id="okpHjbPYMbPtX3PwwOW8-84" value="&lt;font face=&quot;Comic Sans MS&quot; style=&quot;font-size: 16px&quot;&gt;5&#39;&lt;/font&gt;" style="text;html=1;align=center;verticalAlign=middle;resizable=0;points=[];autosize=1;fontSize=16;" vertex="1" parent="okpHjbPYMbPtX3PwwOW8-58">
          <mxGeometry x="440" y="150" width="30" height="30" as="geometry" />
        </mxCell>
        <mxCell id="okpHjbPYMbPtX3PwwOW8-85" value="second-strand cDNA Synthesis" style="text;html=1;align=center;verticalAlign=middle;resizable=0;points=[];autosize=1;fontSize=16;" vertex="1" parent="okpHjbPYMbPtX3PwwOW8-58">
          <mxGeometry x="290" y="205" width="240" height="20" as="geometry" />
        </mxCell>
        <mxCell id="okpHjbPYMbPtX3PwwOW8-86" value="End Repair" style="text;html=1;align=center;verticalAlign=middle;resizable=0;points=[];autosize=1;fontSize=16;" vertex="1" parent="okpHjbPYMbPtX3PwwOW8-58">
          <mxGeometry x="315" y="310" width="100" height="20" as="geometry" />
        </mxCell>
        <mxCell id="okpHjbPYMbPtX3PwwOW8-87" value="" style="group" vertex="1" connectable="0" parent="okpHjbPYMbPtX3PwwOW8-58">
          <mxGeometry x="5" y="319" width="560" height="170" as="geometry" />
        </mxCell>
        <mxCell id="okpHjbPYMbPtX3PwwOW8-88" value="" style="group" vertex="1" connectable="0" parent="okpHjbPYMbPtX3PwwOW8-87">
          <mxGeometry x="190" y="70" width="280" height="20" as="geometry" />
        </mxCell>
        <mxCell id="okpHjbPYMbPtX3PwwOW8-89" value="&lt;font size=&quot;5&quot; color=&quot;#006eaf&quot;&gt;ACCC&lt;/font&gt;" style="text;html=1;strokeColor=none;fillColor=none;align=center;verticalAlign=middle;whiteSpace=wrap;rounded=0;" vertex="1" parent="okpHjbPYMbPtX3PwwOW8-88">
          <mxGeometry width="40" height="20" as="geometry" />
        </mxCell>
        <mxCell id="okpHjbPYMbPtX3PwwOW8-90" value="" style="endArrow=none;dashed=1;html=1;dashPattern=1 3;strokeWidth=4;fillColor=#1ba1e2;strokeColor=#006EAF;" edge="1" parent="okpHjbPYMbPtX3PwwOW8-88">
          <mxGeometry width="50" height="50" relative="1" as="geometry">
            <mxPoint x="60" y="9.5" as="sourcePoint" />
            <mxPoint x="130" y="10" as="targetPoint" />
          </mxGeometry>
        </mxCell>
        <mxCell id="okpHjbPYMbPtX3PwwOW8-91" value="&lt;font style=&quot;font-size: 24px&quot; color=&quot;#006eaf&quot;&gt;GTTT&lt;/font&gt;" style="text;html=1;align=center;verticalAlign=middle;resizable=0;points=[];autosize=1;" vertex="1" parent="okpHjbPYMbPtX3PwwOW8-88">
          <mxGeometry x="130" width="80" height="20" as="geometry" />
        </mxCell>
        <mxCell id="okpHjbPYMbPtX3PwwOW8-92" value="" style="endArrow=none;html=1;strokeWidth=4;fontSize=16;strokeColor=#FF9933;" edge="1" parent="okpHjbPYMbPtX3PwwOW8-88">
          <mxGeometry width="50" height="50" relative="1" as="geometry">
            <mxPoint x="210" y="9.5" as="sourcePoint" />
            <mxPoint x="270" y="10" as="targetPoint" />
          </mxGeometry>
        </mxCell>
        <mxCell id="okpHjbPYMbPtX3PwwOW8-93" value="" style="endArrow=none;html=1;strokeWidth=4;fontSize=16;fillColor=#fa6800;strokeColor=#B5739D;" edge="1" parent="okpHjbPYMbPtX3PwwOW8-87">
          <mxGeometry width="50" height="50" relative="1" as="geometry">
            <mxPoint x="110" y="80" as="sourcePoint" />
            <mxPoint x="170" y="79.5" as="targetPoint" />
          </mxGeometry>
        </mxCell>
        <mxCell id="okpHjbPYMbPtX3PwwOW8-94" value="" style="endArrow=none;html=1;strokeWidth=4;fontSize=16;strokeColor=#FF9933;" edge="1" parent="okpHjbPYMbPtX3PwwOW8-87">
          <mxGeometry width="50" height="50" relative="1" as="geometry">
            <mxPoint x="110" y="100" as="sourcePoint" />
            <mxPoint x="170" y="99.5" as="targetPoint" />
          </mxGeometry>
        </mxCell>
        <mxCell id="okpHjbPYMbPtX3PwwOW8-95" value="&lt;font style=&quot;font-size: 24px&quot; color=&quot;#ff6666&quot;&gt;CAAA&lt;/font&gt;" style="text;html=1;align=center;verticalAlign=middle;resizable=0;points=[];autosize=1;" vertex="1" parent="okpHjbPYMbPtX3PwwOW8-87">
          <mxGeometry x="320" y="90" width="80" height="20" as="geometry" />
        </mxCell>
        <mxCell id="okpHjbPYMbPtX3PwwOW8-96" value="" style="endArrow=none;dashed=1;html=1;dashPattern=1 3;strokeWidth=4;strokeColor=#FF6666;" edge="1" parent="okpHjbPYMbPtX3PwwOW8-87">
          <mxGeometry width="50" height="50" relative="1" as="geometry">
            <mxPoint x="250" y="100" as="sourcePoint" />
            <mxPoint x="330" y="100.5" as="targetPoint" />
          </mxGeometry>
        </mxCell>
        <mxCell id="okpHjbPYMbPtX3PwwOW8-97" value="&lt;font size=&quot;5&quot; color=&quot;#ff6666&quot;&gt;TGGG&lt;/font&gt;" style="text;html=1;strokeColor=none;fillColor=none;align=center;verticalAlign=middle;whiteSpace=wrap;rounded=0;" vertex="1" parent="okpHjbPYMbPtX3PwwOW8-87">
          <mxGeometry x="190" y="90" width="40" height="20" as="geometry" />
        </mxCell>
        <mxCell id="okpHjbPYMbPtX3PwwOW8-98" value="" style="endArrow=none;html=1;strokeWidth=4;fontSize=16;fillColor=#fa6800;strokeColor=#B5739D;" edge="1" parent="okpHjbPYMbPtX3PwwOW8-87">
          <mxGeometry width="50" height="50" relative="1" as="geometry">
            <mxPoint x="400" y="99.5" as="sourcePoint" />
            <mxPoint x="460" y="100" as="targetPoint" />
          </mxGeometry>
        </mxCell>
        <mxCell id="okpHjbPYMbPtX3PwwOW8-99" value="" style="group" vertex="1" connectable="0" parent="okpHjbPYMbPtX3PwwOW8-87">
          <mxGeometry x="460" y="100" width="70" height="50" as="geometry" />
        </mxCell>
        <mxCell id="okpHjbPYMbPtX3PwwOW8-100" value="" style="endArrow=none;dashed=1;html=1;strokeColor=#000000;strokeWidth=4;fontSize=16;dashPattern=1 1;" edge="1" parent="okpHjbPYMbPtX3PwwOW8-99">
          <mxGeometry width="50" height="50" relative="1" as="geometry">
            <mxPoint x="23.333333333333332" y="16.666666666666668" as="sourcePoint" />
            <mxPoint as="targetPoint" />
          </mxGeometry>
        </mxCell>
        <mxCell id="okpHjbPYMbPtX3PwwOW8-101" value="" style="endArrow=none;html=1;strokeWidth=4;fontSize=16;strokeColor=#009900;" edge="1" parent="okpHjbPYMbPtX3PwwOW8-99">
          <mxGeometry width="50" height="50" relative="1" as="geometry">
            <mxPoint x="70" y="50" as="sourcePoint" />
            <mxPoint x="23.333333333333332" y="16.666666666666668" as="targetPoint" />
          </mxGeometry>
        </mxCell>
        <mxCell id="okpHjbPYMbPtX3PwwOW8-102" value="" style="endArrow=classic;html=1;strokeWidth=4;strokeColor=#009900;" edge="1" parent="okpHjbPYMbPtX3PwwOW8-99">
          <mxGeometry width="50" height="50" relative="1" as="geometry">
            <mxPoint x="43" y="30" as="sourcePoint" />
            <mxPoint x="30" y="20" as="targetPoint" />
          </mxGeometry>
        </mxCell>
        <mxCell id="okpHjbPYMbPtX3PwwOW8-103" value="" style="group" vertex="1" connectable="0" parent="okpHjbPYMbPtX3PwwOW8-87">
          <mxGeometry x="460" y="30" width="70" height="65" as="geometry" />
        </mxCell>
        <mxCell id="okpHjbPYMbPtX3PwwOW8-104" value="" style="endArrow=none;html=1;strokeWidth=4;fontSize=16;fillColor=#e3c800;" edge="1" parent="okpHjbPYMbPtX3PwwOW8-103">
          <mxGeometry width="50" height="50" relative="1" as="geometry">
            <mxPoint x="23.333333333333332" y="33.333333333333336" as="sourcePoint" />
            <mxPoint y="50" as="targetPoint" />
          </mxGeometry>
        </mxCell>
        <mxCell id="okpHjbPYMbPtX3PwwOW8-105" value="" style="endArrow=none;html=1;strokeWidth=4;fontSize=16;fillColor=#60a917;rounded=1;strokeColor=#CC0066;" edge="1" parent="okpHjbPYMbPtX3PwwOW8-103">
          <mxGeometry width="50" height="50" relative="1" as="geometry">
            <mxPoint x="23.333333333333332" y="33.333333333333336" as="sourcePoint" />
            <mxPoint x="70" as="targetPoint" />
          </mxGeometry>
        </mxCell>
        <mxCell id="okpHjbPYMbPtX3PwwOW8-106" value="" style="endArrow=classic;html=1;strokeWidth=4;strokeColor=#CC0066;" edge="1" parent="okpHjbPYMbPtX3PwwOW8-103">
          <mxGeometry width="50" height="50" relative="1" as="geometry">
            <mxPoint x="41" y="21" as="sourcePoint" />
            <mxPoint x="52" y="11" as="targetPoint" />
          </mxGeometry>
        </mxCell>
        <mxCell id="okpHjbPYMbPtX3PwwOW8-107" value="" style="group;strokeWidth=2;" vertex="1" connectable="0" parent="okpHjbPYMbPtX3PwwOW8-87">
          <mxGeometry x="40" y="40" width="70" height="40" as="geometry" />
        </mxCell>
        <mxCell id="okpHjbPYMbPtX3PwwOW8-108" value="" style="endArrow=none;dashed=1;html=1;strokeColor=#000000;strokeWidth=4;fontSize=16;dashPattern=1 1;" edge="1" parent="okpHjbPYMbPtX3PwwOW8-107">
          <mxGeometry width="50" height="50" relative="1" as="geometry">
            <mxPoint x="46.666666666666664" y="26.66666666666667" as="sourcePoint" />
            <mxPoint x="70" y="40" as="targetPoint" />
          </mxGeometry>
        </mxCell>
        <mxCell id="okpHjbPYMbPtX3PwwOW8-109" value="" style="endArrow=none;html=1;strokeWidth=4;fontSize=16;strokeColor=#009900;" edge="1" parent="okpHjbPYMbPtX3PwwOW8-107">
          <mxGeometry width="50" height="50" relative="1" as="geometry">
            <mxPoint as="sourcePoint" />
            <mxPoint x="46.666666666666664" y="26.66666666666667" as="targetPoint" />
          </mxGeometry>
        </mxCell>
        <mxCell id="okpHjbPYMbPtX3PwwOW8-110" value="" style="endArrow=none;html=1;strokeWidth=2;fontSize=16;" edge="1" parent="okpHjbPYMbPtX3PwwOW8-107">
          <mxGeometry width="50" height="50" relative="1" as="geometry">
            <mxPoint x="60" as="sourcePoint" />
            <mxPoint x="60" y="20" as="targetPoint" />
          </mxGeometry>
        </mxCell>
        <mxCell id="okpHjbPYMbPtX3PwwOW8-111" value="" style="endArrow=classic;html=1;strokeWidth=4;strokeColor=#009900;" edge="1" parent="okpHjbPYMbPtX3PwwOW8-107">
          <mxGeometry width="50" height="50" relative="1" as="geometry">
            <mxPoint x="20" y="11" as="sourcePoint" />
            <mxPoint x="32" y="21" as="targetPoint" />
          </mxGeometry>
        </mxCell>
        <mxCell id="okpHjbPYMbPtX3PwwOW8-112" value="" style="group;strokeWidth=2;" vertex="1" connectable="0" parent="okpHjbPYMbPtX3PwwOW8-87">
          <mxGeometry x="40" y="100" width="70" height="40" as="geometry" />
        </mxCell>
        <mxCell id="okpHjbPYMbPtX3PwwOW8-113" value="" style="endArrow=none;html=1;strokeWidth=4;fontSize=16;fillColor=#e3c800;" edge="1" parent="okpHjbPYMbPtX3PwwOW8-112">
          <mxGeometry width="50" height="50" relative="1" as="geometry">
            <mxPoint x="46.666666666666664" y="13.333333333333336" as="sourcePoint" />
            <mxPoint x="70" as="targetPoint" />
          </mxGeometry>
        </mxCell>
        <mxCell id="okpHjbPYMbPtX3PwwOW8-114" value="" style="endArrow=none;html=1;strokeWidth=4;fontSize=16;strokeColor=#CC0066;" edge="1" parent="okpHjbPYMbPtX3PwwOW8-112">
          <mxGeometry width="50" height="50" relative="1" as="geometry">
            <mxPoint x="46.666666666666664" y="13.333333333333336" as="sourcePoint" />
            <mxPoint y="40" as="targetPoint" />
          </mxGeometry>
        </mxCell>
        <mxCell id="okpHjbPYMbPtX3PwwOW8-115" value="" style="endArrow=classic;html=1;strokeWidth=4;strokeColor=#CC0066;" edge="1" parent="okpHjbPYMbPtX3PwwOW8-112">
          <mxGeometry width="50" height="50" relative="1" as="geometry">
            <mxPoint x="31" y="21" as="sourcePoint" />
            <mxPoint x="19" y="31" as="targetPoint" />
          </mxGeometry>
        </mxCell>
        <mxCell id="okpHjbPYMbPtX3PwwOW8-116" value="&lt;font style=&quot;font-size: 13px ; background-color: rgb(255 , 255 , 255)&quot; color=&quot;#b5739d&quot;&gt;Rd2 SP&lt;/font&gt;" style="text;html=1;align=center;verticalAlign=middle;resizable=0;points=[];autosize=1;fontSize=16;" vertex="1" parent="okpHjbPYMbPtX3PwwOW8-87">
          <mxGeometry x="109" y="58" width="60" height="20" as="geometry" />
        </mxCell>
        <mxCell id="okpHjbPYMbPtX3PwwOW8-117" value="&lt;font size=&quot;2&quot; color=&quot;#b5739d&quot;&gt;&lt;span&gt;Rd2 SP&lt;/span&gt;&lt;/font&gt;" style="text;html=1;align=center;verticalAlign=middle;resizable=0;points=[];autosize=1;fontSize=16;strokeColor=#B5739D;" vertex="1" parent="okpHjbPYMbPtX3PwwOW8-87">
          <mxGeometry x="400" y="100" width="60" height="20" as="geometry" />
        </mxCell>
        <mxCell id="okpHjbPYMbPtX3PwwOW8-118" value="&lt;font style=&quot;font-size: 13px&quot; color=&quot;#ff9933&quot;&gt;PBS1&lt;/font&gt;" style="text;html=1;align=center;verticalAlign=middle;resizable=0;points=[];autosize=1;fontSize=16;" vertex="1" parent="okpHjbPYMbPtX3PwwOW8-87">
          <mxGeometry x="115" y="100" width="50" height="20" as="geometry" />
        </mxCell>
        <mxCell id="okpHjbPYMbPtX3PwwOW8-119" value="&lt;font style=&quot;font-size: 13px&quot; color=&quot;#a680b8&quot;&gt;PBS1&lt;/font&gt;" style="text;html=1;align=center;verticalAlign=middle;resizable=0;points=[];autosize=1;fontSize=16;" vertex="1" parent="okpHjbPYMbPtX3PwwOW8-87">
          <mxGeometry x="405" y="58" width="50" height="20" as="geometry" />
        </mxCell>
        <mxCell id="okpHjbPYMbPtX3PwwOW8-120" value="" style="endArrow=none;html=1;strokeWidth=2;fontSize=16;" edge="1" parent="okpHjbPYMbPtX3PwwOW8-87">
          <mxGeometry width="50" height="50" relative="1" as="geometry">
            <mxPoint x="100" y="120" as="sourcePoint" />
            <mxPoint x="100" y="140" as="targetPoint" />
          </mxGeometry>
        </mxCell>
        <mxCell id="okpHjbPYMbPtX3PwwOW8-121" value="&lt;font style=&quot;font-size: 16px&quot;&gt;Index 1&lt;/font&gt;" style="text;html=1;align=center;verticalAlign=middle;resizable=0;points=[];autosize=1;fontSize=16;" vertex="1" parent="okpHjbPYMbPtX3PwwOW8-87">
          <mxGeometry x="65" y="20" width="70" height="20" as="geometry" />
        </mxCell>
        <mxCell id="okpHjbPYMbPtX3PwwOW8-122" value="&lt;font style=&quot;font-size: 16px&quot;&gt;Index 2&lt;/font&gt;" style="text;html=1;align=center;verticalAlign=middle;resizable=0;points=[];autosize=1;fontSize=16;" vertex="1" parent="okpHjbPYMbPtX3PwwOW8-87">
          <mxGeometry x="65" y="140" width="70" height="20" as="geometry" />
        </mxCell>
        <mxCell id="okpHjbPYMbPtX3PwwOW8-123" value="&lt;font color=&quot;#009900&quot;&gt;P7&lt;/font&gt;" style="text;html=1;align=center;verticalAlign=middle;resizable=0;points=[];autosize=1;fontSize=16;" vertex="1" parent="okpHjbPYMbPtX3PwwOW8-87">
          <mxGeometry x="20" y="10" width="40" height="20" as="geometry" />
        </mxCell>
        <mxCell id="okpHjbPYMbPtX3PwwOW8-124" value="&lt;font color=&quot;#cc0066&quot;&gt;P5&lt;/font&gt;" style="text;html=1;align=center;verticalAlign=middle;resizable=0;points=[];autosize=1;fontSize=16;" vertex="1" parent="okpHjbPYMbPtX3PwwOW8-87">
          <mxGeometry x="20" y="150" width="40" height="20" as="geometry" />
        </mxCell>
        <mxCell id="okpHjbPYMbPtX3PwwOW8-125" value="5&#39;" style="text;html=1;align=center;verticalAlign=middle;resizable=0;points=[];autosize=1;fontSize=16;" vertex="1" parent="okpHjbPYMbPtX3PwwOW8-87">
          <mxGeometry y="20" width="30" height="20" as="geometry" />
        </mxCell>
        <mxCell id="okpHjbPYMbPtX3PwwOW8-126" value="5&#39;" style="text;html=1;align=center;verticalAlign=middle;resizable=0;points=[];autosize=1;fontSize=16;" vertex="1" parent="okpHjbPYMbPtX3PwwOW8-87">
          <mxGeometry x="530" y="150" width="30" height="20" as="geometry" />
        </mxCell>
        <mxCell id="okpHjbPYMbPtX3PwwOW8-127" value="&lt;font color=&quot;#cc0066&quot;&gt;P5&lt;/font&gt;" style="text;html=1;align=center;verticalAlign=middle;resizable=0;points=[];autosize=1;fontSize=16;" vertex="1" parent="okpHjbPYMbPtX3PwwOW8-87">
          <mxGeometry x="520" width="40" height="20" as="geometry" />
        </mxCell>
        <mxCell id="okpHjbPYMbPtX3PwwOW8-128" value="Add 3&#39; &amp;nbsp;A Tail" style="text;html=1;align=center;verticalAlign=middle;resizable=0;points=[];autosize=1;fontSize=16;" vertex="1" parent="okpHjbPYMbPtX3PwwOW8-87">
          <mxGeometry x="305" y="10" width="110" height="20" as="geometry" />
        </mxCell>
        <mxCell id="okpHjbPYMbPtX3PwwOW8-129" value="Ligate Y type Adapters" style="text;html=1;align=center;verticalAlign=middle;resizable=0;points=[];autosize=1;fontSize=16;" vertex="1" parent="okpHjbPYMbPtX3PwwOW8-87">
          <mxGeometry x="290" y="30" width="180" height="20" as="geometry" />
        </mxCell>
        <mxCell id="okpHjbPYMbPtX3PwwOW8-130" value="" style="endArrow=open;html=1;strokeWidth=3;fillColor=#dae8fc;endFill=0;" edge="1" parent="okpHjbPYMbPtX3PwwOW8-87">
          <mxGeometry width="50" height="50" relative="1" as="geometry">
            <mxPoint x="285" y="115" as="sourcePoint" />
            <mxPoint x="285" y="191" as="targetPoint" />
            <Array as="points" />
          </mxGeometry>
        </mxCell>
        <mxCell id="okpHjbPYMbPtX3PwwOW8-131" value="3" style="ellipse;whiteSpace=wrap;html=1;aspect=fixed;strokeWidth=2;fontSize=16;" vertex="1" parent="okpHjbPYMbPtX3PwwOW8-87">
          <mxGeometry x="231" y="10" width="25" height="25" as="geometry" />
        </mxCell>
        <mxCell id="okpHjbPYMbPtX3PwwOW8-132" value="&lt;span&gt;&lt;font color=&quot;#009900&quot;&gt;P7&lt;/font&gt;&lt;/span&gt;" style="text;html=1;align=center;verticalAlign=middle;resizable=0;points=[];autosize=1;fontSize=16;" vertex="1" parent="okpHjbPYMbPtX3PwwOW8-87">
          <mxGeometry x="520" y="115" width="40" height="20" as="geometry" />
        </mxCell>
        <mxCell id="okpHjbPYMbPtX3PwwOW8-133" value="" style="group" vertex="1" connectable="0" parent="okpHjbPYMbPtX3PwwOW8-58">
          <mxGeometry x="30" y="250" width="440" height="60" as="geometry" />
        </mxCell>
        <mxCell id="okpHjbPYMbPtX3PwwOW8-134" value="" style="group" vertex="1" connectable="0" parent="okpHjbPYMbPtX3PwwOW8-133">
          <mxGeometry x="130" y="35" width="280" height="20" as="geometry" />
        </mxCell>
        <mxCell id="okpHjbPYMbPtX3PwwOW8-135" value="&lt;font size=&quot;5&quot; color=&quot;#ff6666&quot;&gt;TGGG&lt;/font&gt;" style="text;html=1;strokeColor=none;fillColor=none;align=center;verticalAlign=middle;whiteSpace=wrap;rounded=0;" vertex="1" parent="okpHjbPYMbPtX3PwwOW8-134">
          <mxGeometry width="40" height="20" as="geometry" />
        </mxCell>
        <mxCell id="okpHjbPYMbPtX3PwwOW8-136" value="" style="endArrow=none;dashed=1;html=1;dashPattern=1 3;strokeWidth=4;strokeColor=#FF6666;" edge="1" parent="okpHjbPYMbPtX3PwwOW8-134">
          <mxGeometry width="50" height="50" relative="1" as="geometry">
            <mxPoint x="60" y="9.5" as="sourcePoint" />
            <mxPoint x="200" y="10" as="targetPoint" />
          </mxGeometry>
        </mxCell>
        <mxCell id="okpHjbPYMbPtX3PwwOW8-137" value="&lt;font style=&quot;font-size: 24px&quot; color=&quot;#ff6666&quot;&gt;CAAA&lt;/font&gt;" style="text;html=1;align=center;verticalAlign=middle;resizable=0;points=[];autosize=1;" vertex="1" parent="okpHjbPYMbPtX3PwwOW8-134">
          <mxGeometry x="195" width="80" height="20" as="geometry" />
        </mxCell>
        <mxCell id="okpHjbPYMbPtX3PwwOW8-138" value="" style="group" vertex="1" connectable="0" parent="okpHjbPYMbPtX3PwwOW8-133">
          <mxGeometry x="130" y="5" width="280" height="20" as="geometry" />
        </mxCell>
        <mxCell id="okpHjbPYMbPtX3PwwOW8-139" value="&lt;font size=&quot;5&quot; color=&quot;#006eaf&quot;&gt;ACCC&lt;/font&gt;" style="text;html=1;strokeColor=none;fillColor=none;align=center;verticalAlign=middle;whiteSpace=wrap;rounded=0;" vertex="1" parent="okpHjbPYMbPtX3PwwOW8-138">
          <mxGeometry width="40" height="20" as="geometry" />
        </mxCell>
        <mxCell id="okpHjbPYMbPtX3PwwOW8-140" value="" style="endArrow=none;dashed=1;html=1;dashPattern=1 3;strokeWidth=4;fillColor=#1ba1e2;strokeColor=#006EAF;" edge="1" parent="okpHjbPYMbPtX3PwwOW8-138">
          <mxGeometry width="50" height="50" relative="1" as="geometry">
            <mxPoint x="60" y="9.5" as="sourcePoint" />
            <mxPoint x="200" y="10" as="targetPoint" />
          </mxGeometry>
        </mxCell>
        <mxCell id="okpHjbPYMbPtX3PwwOW8-141" value="&lt;font style=&quot;font-size: 24px&quot; color=&quot;#006eaf&quot;&gt;GTTT&lt;/font&gt;" style="text;html=1;align=center;verticalAlign=middle;resizable=0;points=[];autosize=1;" vertex="1" parent="okpHjbPYMbPtX3PwwOW8-138">
          <mxGeometry x="195" width="80" height="20" as="geometry" />
        </mxCell>
        <mxCell id="okpHjbPYMbPtX3PwwOW8-142" value="&lt;font face=&quot;Comic Sans MS&quot; style=&quot;font-size: 16px&quot;&gt;5&#39;&lt;/font&gt;" style="text;html=1;align=center;verticalAlign=middle;resizable=0;points=[];autosize=1;fontSize=16;" vertex="1" parent="okpHjbPYMbPtX3PwwOW8-133">
          <mxGeometry x="80" width="30" height="30" as="geometry" />
        </mxCell>
        <mxCell id="okpHjbPYMbPtX3PwwOW8-143" value="&lt;font face=&quot;Comic Sans MS&quot; style=&quot;font-size: 16px&quot;&gt;5&#39;&lt;/font&gt;" style="text;html=1;align=center;verticalAlign=middle;resizable=0;points=[];autosize=1;fontSize=16;" vertex="1" parent="okpHjbPYMbPtX3PwwOW8-133">
          <mxGeometry x="410" y="30" width="30" height="30" as="geometry" />
        </mxCell>
        <mxCell id="okpHjbPYMbPtX3PwwOW8-144" value="&lt;font face=&quot;Comic Sans MS&quot; style=&quot;font-size: 16px&quot;&gt;3&#39;&lt;/font&gt;" style="text;html=1;align=center;verticalAlign=middle;resizable=0;points=[];autosize=1;fontSize=16;" vertex="1" parent="okpHjbPYMbPtX3PwwOW8-133">
          <mxGeometry x="410" width="30" height="30" as="geometry" />
        </mxCell>
        <mxCell id="okpHjbPYMbPtX3PwwOW8-145" value="&lt;font face=&quot;Comic Sans MS&quot; style=&quot;font-size: 16px&quot;&gt;3&#39;&lt;/font&gt;" style="text;html=1;align=center;verticalAlign=middle;resizable=0;points=[];autosize=1;fontSize=16;" vertex="1" parent="okpHjbPYMbPtX3PwwOW8-133">
          <mxGeometry x="80" y="30" width="30" height="30" as="geometry" />
        </mxCell>
        <mxCell id="okpHjbPYMbPtX3PwwOW8-146" value="&lt;font face=&quot;Georgia&quot;&gt;1st cDNA&lt;/font&gt;" style="text;html=1;align=center;verticalAlign=middle;resizable=0;points=[];autosize=1;fontSize=16;" vertex="1" parent="okpHjbPYMbPtX3PwwOW8-133">
          <mxGeometry x="5" y="30" width="80" height="30" as="geometry" />
        </mxCell>
        <mxCell id="okpHjbPYMbPtX3PwwOW8-147" value="&lt;font face=&quot;Georgia&quot;&gt;2nd cDNA&lt;/font&gt;" style="text;html=1;align=center;verticalAlign=middle;resizable=0;points=[];autosize=1;fontSize=16;" vertex="1" parent="okpHjbPYMbPtX3PwwOW8-133">
          <mxGeometry width="90" height="30" as="geometry" />
        </mxCell>
        <mxCell id="okpHjbPYMbPtX3PwwOW8-148" value="" style="endArrow=open;html=1;strokeWidth=3;fillColor=#dae8fc;endFill=0;" edge="1" parent="okpHjbPYMbPtX3PwwOW8-133">
          <mxGeometry width="50" height="50" relative="1" as="geometry">
            <mxPoint x="260" y="60" as="sourcePoint" />
            <mxPoint x="260" y="130" as="targetPoint" />
            <Array as="points">
              <mxPoint x="260" y="105" />
            </Array>
          </mxGeometry>
        </mxCell>
        <mxCell id="okpHjbPYMbPtX3PwwOW8-149" value="1" style="ellipse;whiteSpace=wrap;html=1;aspect=fixed;strokeWidth=2;fontSize=16;" vertex="1" parent="okpHjbPYMbPtX3PwwOW8-58">
          <mxGeometry x="237.5" y="70" width="25" height="25" as="geometry" />
        </mxCell>
        <mxCell id="okpHjbPYMbPtX3PwwOW8-150" value="2" style="ellipse;whiteSpace=wrap;html=1;aspect=fixed;strokeWidth=2;fontSize=16;" vertex="1" parent="okpHjbPYMbPtX3PwwOW8-58">
          <mxGeometry x="236" y="200" width="25" height="25" as="geometry" />
        </mxCell>
        <mxCell id="okpHjbPYMbPtX3PwwOW8-151" value="&lt;span style=&quot;font-family: &amp;#34;helvetica&amp;#34; ; font-size: 16px ; font-style: normal ; font-weight: normal ; letter-spacing: normal ; text-align: center ; text-indent: 0px ; text-transform: none ; word-spacing: 0px ; background-color: rgb(248 , 249 , 250) ; text-decoration: none ; display: inline ; float: none&quot;&gt;&lt;font color=&quot;#ff9933&quot;&gt;PBS1&amp;nbsp;&lt;/font&gt;&lt;/span&gt;" style="text;whiteSpace=wrap;html=1;" vertex="1" parent="okpHjbPYMbPtX3PwwOW8-58">
          <mxGeometry x="413" y="530" width="91" height="30" as="geometry" />
        </mxCell>
        <mxCell id="okpHjbPYMbPtX3PwwOW8-152" value="&lt;font face=&quot;Georgia&quot;&gt;2nd cDNA&lt;/font&gt;" style="text;html=1;align=center;verticalAlign=middle;resizable=0;points=[];autosize=1;fontSize=16;" vertex="1" parent="okpHjbPYMbPtX3PwwOW8-57">
          <mxGeometry y="556" width="90" height="30" as="geometry" />
        </mxCell>
        <mxCell id="okpHjbPYMbPtX3PwwOW8-153" value="" style="endArrow=none;html=1;strokeWidth=2;fontSize=16;entryX=0.457;entryY=1.05;entryDx=0;entryDy=0;entryPerimeter=0;" edge="1" parent="okpHjbPYMbPtX3PwwOW8-57" target="okpHjbPYMbPtX3PwwOW8-52">
          <mxGeometry width="50" height="50" relative="1" as="geometry">
            <mxPoint x="172" y="556" as="sourcePoint" />
            <mxPoint x="250" y="520" as="targetPoint" />
          </mxGeometry>
        </mxCell>
        <mxCell id="okpHjbPYMbPtX3PwwOW8-154" value="" style="endArrow=none;html=1;strokeWidth=2;fontSize=16;" edge="1" parent="okpHjbPYMbPtX3PwwOW8-57">
          <mxGeometry width="50" height="50" relative="1" as="geometry">
            <mxPoint x="546" y="556" as="sourcePoint" />
            <mxPoint x="546" y="543" as="targetPoint" />
          </mxGeometry>
        </mxCell>
        <mxCell id="okpHjbPYMbPtX3PwwOW8-155" value="&lt;font color=&quot;#009900&quot;&gt;P7&lt;/font&gt;" style="text;html=1;align=center;verticalAlign=middle;resizable=0;points=[];autosize=1;fontSize=16;textOpacity=90;" vertex="1" parent="okpHjbPYMbPtX3PwwOW8-57">
          <mxGeometry x="110" y="600" width="40" height="20" as="geometry" />
        </mxCell>
        <mxCell id="okpHjbPYMbPtX3PwwOW8-156" value="&lt;span style=&quot;font-size: 15px&quot;&gt;&lt;font color=&quot;#b5739d&quot;&gt;Rd2 SP&lt;/font&gt;&lt;/span&gt;" style="text;html=1;align=center;verticalAlign=middle;resizable=0;points=[];autosize=1;fontSize=16;textOpacity=90;" vertex="1" parent="okpHjbPYMbPtX3PwwOW8-57">
          <mxGeometry x="170" y="595" width="70" height="30" as="geometry" />
        </mxCell>
        <mxCell id="okpHjbPYMbPtX3PwwOW8-157" value="&lt;span style=&quot;font-family: &amp;#34;helvetica&amp;#34; ; font-size: 16px ; font-style: normal ; font-weight: normal ; letter-spacing: normal ; text-align: center ; text-indent: 0px ; text-transform: none ; word-spacing: 0px ; text-decoration: none ; display: inline ; float: none&quot;&gt;&lt;font color=&quot;#ff9933&quot;&gt;Rd1 SP&lt;/font&gt;&lt;/span&gt;" style="text;whiteSpace=wrap;html=1;textOpacity=90;" vertex="1" parent="okpHjbPYMbPtX3PwwOW8-57">
          <mxGeometry x="475" y="625" width="80" height="30" as="geometry" />
        </mxCell>
        <mxCell id="okpHjbPYMbPtX3PwwOW8-158" value="&lt;font color=&quot;#cc0066&quot;&gt;P5&lt;/font&gt;" style="text;html=1;align=center;verticalAlign=middle;resizable=0;points=[];autosize=1;fontSize=16;textOpacity=90;" vertex="1" parent="okpHjbPYMbPtX3PwwOW8-57">
          <mxGeometry x="570" y="600" width="40" height="20" as="geometry" />
        </mxCell>
        <mxCell id="okpHjbPYMbPtX3PwwOW8-159" value="&lt;font color=&quot;#cc0066&quot;&gt;anti-P5&lt;/font&gt;" style="text;html=1;align=center;verticalAlign=middle;resizable=0;points=[];autosize=1;fontSize=16;" vertex="1" parent="okpHjbPYMbPtX3PwwOW8-57">
          <mxGeometry x="555" y="566" width="70" height="20" as="geometry" />
        </mxCell>
        <mxCell id="okpHjbPYMbPtX3PwwOW8-160" value="&lt;font color=&quot;#009900&quot;&gt;anti-P7&lt;/font&gt;" style="text;html=1;align=center;verticalAlign=middle;resizable=0;points=[];autosize=1;fontSize=16;" vertex="1" parent="okpHjbPYMbPtX3PwwOW8-57">
          <mxGeometry x="100" y="566" width="70" height="20" as="geometry" />
        </mxCell>
        <mxCell id="okpHjbPYMbPtX3PwwOW8-161" value="&lt;font style=&quot;font-size: 24px&quot; color=&quot;#006eaf&quot;&gt;CAAA&lt;/font&gt;" style="text;html=1;align=center;verticalAlign=middle;resizable=0;points=[];autosize=1;" vertex="1" parent="okpHjbPYMbPtX3PwwOW8-57">
          <mxGeometry x="390" y="575" width="80" height="20" as="geometry" />
        </mxCell>
        <mxCell id="okpHjbPYMbPtX3PwwOW8-162" value="" style="endArrow=none;dashed=1;html=1;dashPattern=1 3;strokeWidth=4;strokeColor=#006EAF;" edge="1" parent="okpHjbPYMbPtX3PwwOW8-57">
          <mxGeometry width="50" height="50" relative="1" as="geometry">
            <mxPoint x="320" y="585" as="sourcePoint" />
            <mxPoint x="400" y="585.5" as="targetPoint" />
          </mxGeometry>
        </mxCell>
        <mxCell id="okpHjbPYMbPtX3PwwOW8-163" value="&lt;font size=&quot;5&quot; color=&quot;#006eaf&quot;&gt;TGGG&lt;/font&gt;" style="text;html=1;strokeColor=none;fillColor=none;align=center;verticalAlign=middle;whiteSpace=wrap;rounded=0;" vertex="1" parent="okpHjbPYMbPtX3PwwOW8-57">
          <mxGeometry x="260" y="575" width="40" height="20" as="geometry" />
        </mxCell>
        <mxCell id="okpHjbPYMbPtX3PwwOW8-164" value="" style="group" vertex="1" connectable="0" parent="okpHjbPYMbPtX3PwwOW8-57">
          <mxGeometry x="530" y="586" width="90" as="geometry" />
        </mxCell>
        <mxCell id="okpHjbPYMbPtX3PwwOW8-165" value="" style="endArrow=none;html=1;strokeWidth=4;fontSize=16;fillColor=#e3c800;" edge="1" parent="okpHjbPYMbPtX3PwwOW8-164">
          <mxGeometry width="50" height="50" relative="1" as="geometry">
            <mxPoint x="30" as="sourcePoint" />
            <mxPoint as="targetPoint" />
          </mxGeometry>
        </mxCell>
        <mxCell id="okpHjbPYMbPtX3PwwOW8-166" value="" style="endArrow=none;html=1;strokeWidth=4;fontSize=16;fillColor=#60a917;strokeColor=#CC0066;" edge="1" parent="okpHjbPYMbPtX3PwwOW8-164">
          <mxGeometry width="50" height="50" relative="1" as="geometry">
            <mxPoint x="30" as="sourcePoint" />
            <mxPoint x="90" as="targetPoint" />
          </mxGeometry>
        </mxCell>
        <mxCell id="okpHjbPYMbPtX3PwwOW8-167" value="" style="endArrow=none;html=1;strokeWidth=4;fontSize=16;strokeColor=#FF9933;" edge="1" parent="okpHjbPYMbPtX3PwwOW8-57">
          <mxGeometry width="50" height="50" relative="1" as="geometry">
            <mxPoint x="470" y="585.5" as="sourcePoint" />
            <mxPoint x="530" y="586" as="targetPoint" />
          </mxGeometry>
        </mxCell>
        <mxCell id="okpHjbPYMbPtX3PwwOW8-168" value="" style="group" vertex="1" connectable="0" parent="okpHjbPYMbPtX3PwwOW8-57">
          <mxGeometry x="110" y="585" width="130" height="0.5" as="geometry" />
        </mxCell>
        <mxCell id="okpHjbPYMbPtX3PwwOW8-169" value="" style="endArrow=none;dashed=1;html=1;strokeColor=#000000;strokeWidth=4;fontSize=16;dashPattern=1 1;" edge="1" parent="okpHjbPYMbPtX3PwwOW8-168">
          <mxGeometry width="50" height="50" relative="1" as="geometry">
            <mxPoint x="47" y="0.5" as="sourcePoint" />
            <mxPoint x="70" y="0.5" as="targetPoint" />
          </mxGeometry>
        </mxCell>
        <mxCell id="okpHjbPYMbPtX3PwwOW8-170" value="" style="endArrow=none;html=1;strokeWidth=4;fontSize=16;strokeColor=#009900;" edge="1" parent="okpHjbPYMbPtX3PwwOW8-168">
          <mxGeometry width="50" height="50" relative="1" as="geometry">
            <mxPoint y="0.5" as="sourcePoint" />
            <mxPoint x="47" y="0.5" as="targetPoint" />
          </mxGeometry>
        </mxCell>
        <mxCell id="okpHjbPYMbPtX3PwwOW8-171" value="" style="endArrow=none;html=1;strokeWidth=4;fontSize=16;fillColor=#fa6800;strokeColor=#B5739D;" edge="1" parent="okpHjbPYMbPtX3PwwOW8-168">
          <mxGeometry width="50" height="50" relative="1" as="geometry">
            <mxPoint x="70" y="0.5" as="sourcePoint" />
            <mxPoint x="130" as="targetPoint" />
          </mxGeometry>
        </mxCell>
        <mxCell id="okpHjbPYMbPtX3PwwOW8-172" value="5&#39;" style="text;html=1;align=center;verticalAlign=middle;resizable=0;points=[];autosize=1;fontSize=16;" vertex="1" parent="okpHjbPYMbPtX3PwwOW8-57">
          <mxGeometry x="620" y="575" width="30" height="20" as="geometry" />
        </mxCell>
        <mxCell id="okpHjbPYMbPtX3PwwOW8-173" value="&lt;font style=&quot;font-size: 16px&quot; color=&quot;#ff9933&quot;&gt;Rd1 SP&lt;/font&gt;" style="text;html=1;align=center;verticalAlign=middle;resizable=0;points=[];autosize=1;fontSize=16;" vertex="1" parent="okpHjbPYMbPtX3PwwOW8-57">
          <mxGeometry x="470" y="566" width="70" height="20" as="geometry" />
        </mxCell>
        <mxCell id="okpHjbPYMbPtX3PwwOW8-174" value="&lt;div style=&quot;text-align: center&quot;&gt;&lt;font color=&quot;#ff9933&quot; face=&quot;helvetica&quot; size=&quot;3&quot;&gt;&lt;span&gt;PBS1&lt;/span&gt;&lt;/font&gt;&lt;/div&gt;" style="text;whiteSpace=wrap;html=1;" vertex="1" parent="okpHjbPYMbPtX3PwwOW8-57">
          <mxGeometry x="475" y="590" width="105" height="30" as="geometry" />
        </mxCell>
        <mxCell id="okpHjbPYMbPtX3PwwOW8-175" value="&lt;font face=&quot;Georgia&quot;&gt;1st cDNA&lt;/font&gt;" style="text;html=1;align=center;verticalAlign=middle;resizable=0;points=[];autosize=1;fontSize=16;textOpacity=90;" vertex="1" parent="1">
          <mxGeometry x="455" y="630" width="80" height="30" as="geometry" />
        </mxCell>
      </root>
    </mxGraphModel>
  </diagram>
</mxfile>
